<?xml version="1.0" encoding="utf-8"?>
<!-- Generator: Adobe Illustrator 25.2.1, SVG Export Plug-In . SVG Version: 6.00 Build 0)  -->
<svg version="1.1" id="Livello_1" xmlns="http://www.w3.org/2000/svg" xmlns:xlink="http://www.w3.org/1999/xlink" x="0px" y="0px"
	 viewBox="0 0 56 56" style="enable-background:new 0 0 56 56;" xml:space="preserve">
<style type="text/css">
	.st0{fill:url(#SVGID_1_);}
	.st1{fill:#FFFFFF;}
	.st2{fill:url(#SVGID_2_);}
	.st3{fill:url(#SVGID_3_);}
	.st4{fill:url(#SVGID_4_);}
	.st5{fill:url(#SVGID_5_);}
	.st6{fill:url(#SVGID_6_);}
	.st7{fill:url(#SVGID_7_);}
	.st8{fill:url(#SVGID_8_);}
	.st9{fill:url(#SVGID_9_);}
	.st10{fill:url(#SVGID_10_);}
	.st11{fill:url(#SVGID_11_);}
	.st12{fill:url(#SVGID_12_);}
	.st13{fill:url(#SVGID_13_);}
	.st14{fill:url(#SVGID_14_);}
</style>
<linearGradient id="SVGID_1_" gradientUnits="userSpaceOnUse" x1="5" y1="28" x2="51" y2="28">
	<stop  offset="0" style="stop-color:#D5A568"/>
	<stop  offset="1" style="stop-color:#D1495B"/>
</linearGradient>
<path class="st0" d="M9,0C6.8,0,5,1.8,5,4v47v1c0,2.2,1.8,4,4,4h37c1.7,0,3-1.3,3-3v-3.2c1.2-0.4,2-1.5,2-2.8V3c0-1.7-1.3-3-3-3H9z"
	/>
<path class="st1" d="M9,2h39c0.6,0,1,0.4,1,1v44c0,0.6-0.4,1-1,1H17V13c0-0.6-0.4-1-1-1s-1,0.4-1,1v35H9c-0.6,0-1.3,0.2-2,0.6V4
	C7,2.9,7.9,2,9,2z"/>
<linearGradient id="SVGID_2_" gradientUnits="userSpaceOnUse" x1="9" y1="5" x2="13" y2="5">
	<stop  offset="0" style="stop-color:#D5A568"/>
	<stop  offset="1" style="stop-color:#D1495B"/>
</linearGradient>
<path class="st2" d="M10,4C9.4,4,9,4.4,9,5s0.4,1,1,1h2c0.6,0,1-0.4,1-1s-0.4-1-1-1H10z"/>
<linearGradient id="SVGID_3_" gradientUnits="userSpaceOnUse" x1="15" y1="7" x2="17" y2="7">
	<stop  offset="0" style="stop-color:#D5A568"/>
	<stop  offset="1" style="stop-color:#D1495B"/>
</linearGradient>
<path class="st3" d="M16,4c-0.6,0-1,0.4-1,1v4c0,0.6,0.4,1,1,1s1-0.4,1-1V5C17,4.4,16.6,4,16,4z"/>
<linearGradient id="SVGID_4_" gradientUnits="userSpaceOnUse" x1="9" y1="10" x2="13" y2="10">
	<stop  offset="0" style="stop-color:#D5A568"/>
	<stop  offset="1" style="stop-color:#D1495B"/>
</linearGradient>
<path class="st4" d="M10,9c-0.6,0-1,0.4-1,1s0.4,1,1,1h2c0.6,0,1-0.4,1-1s-0.4-1-1-1H10z"/>
<linearGradient id="SVGID_5_" gradientUnits="userSpaceOnUse" x1="9" y1="15" x2="13" y2="15">
	<stop  offset="0" style="stop-color:#D5A568"/>
	<stop  offset="1" style="stop-color:#D1495B"/>
</linearGradient>
<path class="st5" d="M10,14c-0.6,0-1,0.4-1,1s0.4,1,1,1h2c0.6,0,1-0.4,1-1s-0.4-1-1-1H10z"/>
<linearGradient id="SVGID_6_" gradientUnits="userSpaceOnUse" x1="9" y1="20" x2="13" y2="20">
	<stop  offset="0" style="stop-color:#D5A568"/>
	<stop  offset="1" style="stop-color:#D1495B"/>
</linearGradient>
<path class="st6" d="M10,19c-0.6,0-1,0.4-1,1s0.4,1,1,1h2c0.6,0,1-0.4,1-1s-0.4-1-1-1H10z"/>
<linearGradient id="SVGID_7_" gradientUnits="userSpaceOnUse" x1="23" y1="21" x2="35" y2="21">
	<stop  offset="0" style="stop-color:#D5A568"/>
	<stop  offset="1" style="stop-color:#D1495B"/>
</linearGradient>
<path class="st7" d="M24,20c-0.6,0-1,0.4-1,1s0.4,1,1,1h10c0.6,0,1-0.4,1-1s-0.4-1-1-1H24z"/>
<linearGradient id="SVGID_8_" gradientUnits="userSpaceOnUse" x1="37" y1="21" x2="43" y2="21">
	<stop  offset="0" style="stop-color:#D5A568"/>
	<stop  offset="1" style="stop-color:#D1495B"/>
</linearGradient>
<path class="st8" d="M38,20c-0.6,0-1,0.4-1,1s0.4,1,1,1h4c0.6,0,1-0.4,1-1s-0.4-1-1-1H38z"/>
<linearGradient id="SVGID_9_" gradientUnits="userSpaceOnUse" x1="9" y1="25" x2="13" y2="25">
	<stop  offset="0" style="stop-color:#D5A568"/>
	<stop  offset="1" style="stop-color:#D1495B"/>
</linearGradient>
<path class="st9" d="M10,24c-0.6,0-1,0.4-1,1s0.4,1,1,1h2c0.6,0,1-0.4,1-1s-0.4-1-1-1H10z"/>
<linearGradient id="SVGID_10_" gradientUnits="userSpaceOnUse" x1="27" y1="25" x2="39" y2="25">
	<stop  offset="0" style="stop-color:#D5A568"/>
	<stop  offset="1" style="stop-color:#D1495B"/>
</linearGradient>
<path class="st10" d="M28,24c-0.6,0-1,0.4-1,1s0.4,1,1,1h10c0.6,0,1-0.4,1-1s-0.4-1-1-1H28z"/>
<linearGradient id="SVGID_11_" gradientUnits="userSpaceOnUse" x1="9" y1="30" x2="13" y2="30">
	<stop  offset="0" style="stop-color:#D5A568"/>
	<stop  offset="1" style="stop-color:#D1495B"/>
</linearGradient>
<path class="st11" d="M10,29c-0.6,0-1,0.4-1,1s0.4,1,1,1h2c0.6,0,1-0.4,1-1s-0.4-1-1-1H10z"/>
<linearGradient id="SVGID_12_" gradientUnits="userSpaceOnUse" x1="9" y1="35" x2="13" y2="35">
	<stop  offset="0" style="stop-color:#D5A568"/>
	<stop  offset="1" style="stop-color:#D1495B"/>
</linearGradient>
<path class="st12" d="M10,34c-0.6,0-1,0.4-1,1s0.4,1,1,1h2c0.6,0,1-0.4,1-1s-0.4-1-1-1H10z"/>
<linearGradient id="SVGID_13_" gradientUnits="userSpaceOnUse" x1="9" y1="40" x2="13" y2="40">
	<stop  offset="0" style="stop-color:#D5A568"/>
	<stop  offset="1" style="stop-color:#D1495B"/>
</linearGradient>
<path class="st13" d="M10,39c-0.6,0-1,0.4-1,1s0.4,1,1,1h2c0.6,0,1-0.4,1-1s-0.4-1-1-1H10z"/>
<linearGradient id="SVGID_14_" gradientUnits="userSpaceOnUse" x1="9" y1="45" x2="13" y2="45">
	<stop  offset="0" style="stop-color:#D5A568"/>
	<stop  offset="1" style="stop-color:#D1495B"/>
</linearGradient>
<path class="st14" d="M10,44c-0.6,0-1,0.4-1,1s0.4,1,1,1h2c0.6,0,1-0.4,1-1s-0.4-1-1-1H10z"/>
<path class="st1" d="M9,50h38v3c0,0.6-0.4,1-1,1H9c-1.1,0-2-0.9-2-2C7,50.8,8.4,50,9,50z"/>
</svg>
